<?xml version="1.0" encoding="UTF-8"?>
<svg version="1.1" xmlns="http://www.w3.org/2000/svg" width="330" height="108">
<path d="M0 0 C1.81951172 0.02030273 1.81951172 0.02030273 3.67578125 0.04101562 C6.65931206 0.07625418 9.64192458 0.12552475 12.625 0.1875 C12.82909485 1.16008255 13.0331897 2.1326651 13.24346924 3.13471985 C15.18469071 12.38527147 17.12597763 21.63580935 19.06732559 30.88633442 C20.06493517 35.63995518 21.06252318 40.39358047 22.06005859 45.1472168 C23.02611772 49.7508524 23.99223781 54.35447521 24.95839691 58.95808983 C25.32353555 60.69797515 25.68865369 62.43786477 26.05374908 64.17775917 C26.4021703 65.83817853 26.75069112 67.49857699 27.09931564 69.15895367 C27.43677016 70.76753912 27.77359748 72.3762563 28.10976028 73.98511219 C28.98021075 78.14567711 29.8650318 82.30253746 30.77038574 86.45565796 C30.95651302 87.3173141 31.1426403 88.17897024 31.33440781 89.06673717 C31.68938503 90.7083748 32.04832862 92.34916173 32.4119606 93.988904 C32.65080286 95.09880333 32.65080286 95.09880333 32.89447021 96.23112488 C33.03589321 96.87635196 33.17731621 97.52157904 33.32302475 98.18635845 C33.625 100.1875 33.625 100.1875 33.625 105.1875 C25.375 105.1875 17.125 105.1875 8.625 105.1875 C6.625 99.1875 6.625 99.1875 4.625 90.1875 C-6.265 89.8575 -17.155 89.5275 -28.375 89.1875 C-29.365 92.8175 -30.355 96.4475 -31.375 100.1875 C-32.035 101.8375 -32.695 103.4875 -33.375 105.1875 C-42.945 105.1875 -52.515 105.1875 -62.375 105.1875 C-61.68123717 101.71868586 -61.11098513 99.22781498 -59.80297852 96.07958984 C-59.48010361 95.29626282 -59.1572287 94.51293579 -58.8245697 93.70587158 C-58.47125076 92.86191833 -58.11793182 92.01796509 -57.75390625 91.1484375 C-57.38217789 90.25034363 -57.01044952 89.35224976 -56.62745667 88.42694092 C-55.40214264 85.47016334 -54.17011728 82.51623973 -52.9375 79.5625 C-52.08356764 77.50905742 -51.22989245 75.45550788 -50.37646484 73.40185547 C-48.60493756 69.14118095 -46.8303604 64.8817915 -45.05419922 60.62304688 C-42.86849988 55.37879514 -40.69647366 50.12902927 -38.53031921 44.87667847 C-36.91197929 40.95508523 -35.28757422 37.03602329 -33.66183472 33.11749268 C-32.89286447 31.26098427 -32.12616689 29.40353273 -31.36184692 27.54510498 C-30.29226795 24.94647606 -29.21363318 22.35178213 -28.1328125 19.7578125 C-27.67135582 18.62783844 -27.67135582 18.62783844 -27.20057678 17.47503662 C-24.66565468 11.43324983 -22.10049281 5.37563224 -16.8984375 1.19921875 C-11.3028801 -0.40748786 -5.78561301 -0.12223126 0 0 Z M-7.375 32.1875 C-12.46741427 43.57198382 -16.34802479 55.3963567 -20.375 67.1875 C-13.445 67.1875 -6.515 67.1875 0.625 67.1875 C-0.16503026 63.04134885 -0.95697168 58.89557784 -1.75 54.75 C-1.97171875 53.58533203 -2.1934375 52.42066406 -2.421875 51.22070312 C-3.64199103 44.85097975 -4.92800736 38.50964073 -6.375 32.1875 C-6.705 32.1875 -7.035 32.1875 -7.375 32.1875 Z " fill="#1333CB" transform="translate(296.375,0.8125)"/>
<path d="M0 0 C6.68932017 -0.10181508 13.37843887 -0.17163915 20.06835938 -0.21972656 C22.34187284 -0.23978317 24.6153351 -0.26703538 26.88867188 -0.30175781 C30.16549349 -0.35053712 33.44163025 -0.37302897 36.71875 -0.390625 C38.23172668 -0.42159271 38.23172668 -0.42159271 39.77526855 -0.45318604 C45.95084216 -0.45512877 51.00594505 0.1136954 56 4 C59.98760072 9.30014387 60.51547273 16.66168057 61.69921875 23.0546875 C61.9391304 24.31137238 62.17904205 25.56805725 62.42622375 26.86282349 C63.05895006 30.18575042 63.68394191 33.50994067 64.30517578 36.83502197 C64.94238564 40.23500046 65.58979775 43.63303389 66.23632812 47.03125 C67.50025258 53.68575513 68.75400868 60.34211511 70 67 C72.57852047 60.49397007 75.15612813 53.987579 77.7331543 47.48095703 C78.60665092 45.27579916 79.48034289 43.07071866 80.35424805 40.86572266 C81.62342159 37.66329853 82.89193621 34.46061434 84.16015625 31.2578125 C84.57375397 30.21385315 84.98735168 29.1698938 85.41348267 28.09429932 C87.34234817 23.21886532 89.26073309 18.33996453 91.14794922 13.44824219 C91.47323105 12.60550751 91.79851288 11.76277283 92.13365173 10.89450073 C92.73458853 9.33371271 93.33316363 7.77201258 93.92897034 6.20925903 C95.89108713 1.10891287 95.89108713 1.10891287 97 0 C99.14558827 -0.08775605 101.29404421 -0.10695219 103.44140625 -0.09765625 C104.74658203 -0.09443359 106.05175781 -0.09121094 107.39648438 -0.08789062 C108.7851569 -0.07953401 110.17382877 -0.07106905 111.5625 -0.0625 C112.95507656 -0.05748666 114.34765481 -0.05292347 115.74023438 -0.04882812 C119.1601987 -0.03699434 122.58007844 -0.0205088 126 0 C124.11070216 5.89043836 122.0120634 11.63180097 119.62109375 17.3359375 C119.29667801 18.11698349 118.97226227 18.89802948 118.63801575 19.70274353 C117.57425345 22.2614552 116.50594656 24.81824123 115.4375 27.375 C114.68759101 29.17592776 113.93792095 30.97695502 113.18847656 32.77807617 C110.79735915 38.52082675 108.39929822 44.2606634 106 50 C105.59154846 50.97733093 105.18309692 51.95466187 104.76226807 52.96160889 C100.14006362 64.02091711 95.51311213 75.07823176 90.87666321 86.13157654 C88.2411213 92.41695137 85.62139919 98.70864195 83 105 C73.1 105 63.2 105 53 105 C52.34926514 102.45128174 51.69853027 99.90256348 51.02807617 97.27661133 C48.87609996 88.85291391 46.71527862 80.43150384 44.55010509 72.01118946 C43.23772433 66.90624245 41.9283271 61.80056886 40.62573242 56.69311523 C39.3683869 51.76354092 38.10322549 46.83603342 36.83263588 41.9098568 C36.34942439 40.030732 35.8690264 38.15088139 35.39150047 36.27030373 C34.72181924 33.63500875 34.04215169 31.00247944 33.36010742 28.37036133 C33.06771179 27.20510674 33.06771179 27.20510674 32.76940918 26.01631165 C31.49507293 21.15375294 30.27827839 16.52449855 25.8984375 13.59375 C17.4846657 9.94691393 8.8255295 7.43141786 0 5 C0 3.35 0 1.7 0 0 Z " fill="#1333CB" transform="translate(0,1)"/>
<path d="M0 0 C0.96518555 0.00201416 1.93037109 0.00402832 2.92480469 0.00610352 C10.8878599 0.11747958 19.06382212 0.68816106 26.3125 4.3125 C25.79213992 9.51610075 24.93906148 14.61634196 23.9375 19.75 C23.70289063 20.96558594 23.46828125 22.18117188 23.2265625 23.43359375 C22.92492187 24.38363281 22.62328125 25.33367188 22.3125 26.3125 C18.88921253 27.45359582 18.24647825 27.15983551 15 25.9375 C5.32705632 22.52626865 -3.29018923 22.02600737 -12.6875 26.3125 C-14.86670507 28.13057085 -14.86670507 28.13057085 -15.1875 30.625 C-14.45493585 34.56253232 -11.80679555 36.09897379 -8.6875 38.3125 C-4.79177984 40.69243566 -0.7790449 42.8611191 3.23632812 45.03125 C11.35737251 49.5681463 17.51726949 54.62076997 20.65234375 63.578125 C22.82785394 72.58911396 21.61318789 81.14119302 17.3125 89.3125 C11.1765186 98.94814919 0.55530347 104.42284955 -10.40625 106.94848633 C-15.14433684 107.70453165 -19.8993101 107.69367737 -24.6875 107.6875 C-25.78586182 107.68806396 -26.88422363 107.68862793 -28.01586914 107.68920898 C-37.44054727 107.56282838 -47.12056568 106.59596716 -55.6875 102.3125 C-54.57934084 94.11212224 -53.07068475 86.24056125 -50.6875 78.3125 C-44.6875 80.3125 -44.6875 80.3125 -42.49609375 81.078125 C-31.97982983 84.70810443 -22.00414403 86.19933138 -11.6875 81.3125 C-9.92777297 79.99578975 -9.92777297 79.99578975 -8.6875 78.3125 C-8.53266561 74.80989918 -8.53266561 74.80989918 -9.6875 71.3125 C-14.50801697 66.70157072 -20.74158559 63.80315275 -26.5625 60.64257812 C-34.32288772 56.28813835 -40.70507805 51.24325304 -44.02734375 42.7578125 C-46.33208914 34.22070829 -44.7097007 26.05810936 -40.6875 18.3125 C-34.53110855 8.62933153 -23.88387219 3.21009441 -12.88818359 0.67211914 C-8.60584161 -0.02766894 -4.32993553 -0.02437182 0 0 Z " fill="#1333CB" transform="translate(214.6875,-0.3125)"/>
<path d="M0 0 C9.24 0 18.48 0 28 0 C26.7926894 7.24386363 25.57055451 14.40598246 24.04467773 21.57641602 C23.86067413 22.45117081 23.67667053 23.3259256 23.48709106 24.22718811 C22.8884274 27.06996197 22.28612439 29.91194972 21.68359375 32.75390625 C21.26269062 34.74735432 20.841963 36.74083946 20.42140198 38.73435974 C19.54467082 42.88745786 18.66619245 47.04018118 17.78637695 51.19262695 C16.65806086 56.51836484 15.53361473 61.84491087 14.41038418 67.17172337 C13.54442237 71.27685067 12.67672163 75.38160884 11.80845833 79.48624992 C11.39293264 81.4513851 10.97788476 83.41662136 10.56332207 85.38195992 C9.98591861 88.1177208 9.40624535 90.85299078 8.82592773 93.58813477 C8.65500107 94.40006287 8.4840744 95.21199097 8.30796814 96.04852295 C7.65985465 99.09381964 6.98550963 102.04347112 6 105 C-3.24 105 -12.48 105 -22 105 C-20.79780919 97.78685514 -19.58395605 90.66512559 -18.04467773 83.53125 C-17.86067413 82.66785507 -17.67667053 81.80446014 -17.48709106 80.91490173 C-16.88850698 78.10937558 -16.28612187 75.3046815 -15.68359375 72.5 C-15.26264754 70.53137747 -14.8419207 68.56270803 -14.42140198 66.59399414 C-13.54468815 62.49216258 -12.66624786 58.39070627 -11.78637695 54.28955078 C-10.65869801 49.03328668 -9.53398843 43.77639307 -8.41038418 38.51925659 C-7.33575902 33.49179637 -6.25976176 28.46463015 -5.18359375 23.4375 C-4.97890409 22.48085449 -4.77421444 21.52420898 -4.56332207 20.53857422 C-3.98494389 17.83675192 -3.40560011 15.13513864 -2.82592773 12.43359375 C-2.65500107 11.63461166 -2.4840744 10.83562958 -2.30796814 10.01243591 C-1.58755356 6.65944302 -0.8319098 3.32763921 0 0 Z " fill="#1333CB" transform="translate(136,1)"/>
</svg>
